<svg xmlns="http://www.w3.org/2000/svg" width="32" height="32" viewBox="0 0 32 32" fill="none">
  <style>
    .logo-mark {
      color: #000;
    }

    @media (prefers-color-scheme: dark) {
      .logo-mark {
        color: #fff;
      }
    }
  </style>
  <g class="logo-mark">
    <path
      d="M29.5 16C29.5 23.4558 23.4558 29.5 16 29.5C8.54416 29.5 2.5 23.4558 2.5 16C2.5 8.54416 8.54416 2.5 16 2.5C23.4558 2.5 29.5 8.54416 29.5 16Z"
      stroke="currentColor"
      stroke-width="2"
    />
    <path
      fill="currentColor"
      d="M13.767 15.8583L15.4538 17.8745L15.4538 17.8745C15.4538 17.8745 15.4538 17.8745 15.4538 17.8745L15.4538 17.8745L18.6906 13.4128L20.3094 14.5872L17.0727 19.0489L16.2633 18.4617L17.0727 19.0489C16.3079 20.1031 14.7556 20.1567 13.9199 19.1579L14.6869 18.5162L13.9199 19.1579L12.233 17.1417L13.767 15.8583ZM13 17.5C12.4477 17.5 12 17.0523 12 16.5C12 15.9477 12.4477 15.5 13 15.5C13.5523 15.5 14 15.9477 14 16.5C14 17.0523 13.5523 17.5 13 17.5ZM19.5 15C18.9477 15 18.5 14.5523 18.5 14C18.5 13.4477 18.9477 13 19.5 13C20.0523 13 20.5 13.4477 20.5 14C20.5 14.5523 20.0523 15 19.5 15Z"
    />
  </g>
</svg>
